<svg id="visual" viewBox="0 0 900 600" width="900" height="600" xmlns="http://www.w3.org/2000/svg" xmlns:xlink="http://www.w3.org/1999/xlink" version="1.1"><rect x="0" y="0" width="900" height="600" fill="#16619a"></rect><path d="M0 390L18.8 354.5C37.7 319 75.3 248 112.8 227.7C150.3 207.3 187.7 237.7 225.2 278.3C262.7 319 300.3 370 337.8 395.2C375.3 420.3 412.7 419.7 450.2 376.8C487.7 334 525.3 249 562.8 207.2C600.3 165.3 637.7 166.7 675.2 206.7C712.7 246.7 750.3 325.3 787.8 335.2C825.3 345 862.7 286 881.3 256.5L900 227L900 601L881.3 601C862.7 601 825.3 601 787.8 601C750.3 601 712.7 601 675.2 601C637.7 601 600.3 601 562.8 601C525.3 601 487.7 601 450.2 601C412.7 601 375.3 601 337.8 601C300.3 601 262.7 601 225.2 601C187.7 601 150.3 601 112.8 601C75.3 601 37.7 601 18.8 601L0 601Z" fill="#ffffff"></path><path d="M0 393L18.8 406.8C37.7 420.7 75.3 448.3 112.8 431.8C150.3 415.3 187.7 354.7 225.2 329.2C262.7 303.7 300.3 313.3 337.8 342.7C375.3 372 412.7 421 450.2 432.2C487.7 443.3 525.3 416.7 562.8 383.8C600.3 351 637.7 312 675.2 323.5C712.7 335 750.3 397 787.8 416.2C825.3 435.3 862.7 411.7 881.3 399.8L900 388L900 601L881.3 601C862.7 601 825.3 601 787.8 601C750.3 601 712.7 601 675.2 601C637.7 601 600.3 601 562.8 601C525.3 601 487.7 601 450.2 601C412.7 601 375.3 601 337.8 601C300.3 601 262.7 601 225.2 601C187.7 601 150.3 601 112.8 601C75.3 601 37.7 601 18.8 601L0 601Z" fill="#bfc7be"></path><path d="M0 506L18.8 490.5C37.7 475 75.3 444 112.8 443.2C150.3 442.3 187.7 471.7 225.2 483.8C262.7 496 300.3 491 337.8 494.3C375.3 497.7 412.7 509.3 450.2 494.7C487.7 480 525.3 439 562.8 423.2C600.3 407.3 637.7 416.7 675.2 428C712.7 439.3 750.3 452.7 787.8 443.3C825.3 434 862.7 402 881.3 386L900 370L900 601L881.3 601C862.7 601 825.3 601 787.8 601C750.3 601 712.7 601 675.2 601C637.7 601 600.3 601 562.8 601C525.3 601 487.7 601 450.2 601C412.7 601 375.3 601 337.8 601C300.3 601 262.7 601 225.2 601C187.7 601 150.3 601 112.8 601C75.3 601 37.7 601 18.8 601L0 601Z" fill="#829281"></path><path d="M0 464L18.8 465.3C37.7 466.7 75.3 469.3 112.8 469.8C150.3 470.3 187.7 468.7 225.2 483C262.7 497.3 300.3 527.7 337.8 534.5C375.3 541.3 412.7 524.7 450.2 521.2C487.7 517.7 525.3 527.3 562.8 532.2C600.3 537 637.7 537 675.2 543.2C712.7 549.3 750.3 561.7 787.8 561.8C825.3 562 862.7 550 881.3 544L900 538L900 601L881.3 601C862.7 601 825.3 601 787.8 601C750.3 601 712.7 601 675.2 601C637.7 601 600.3 601 562.8 601C525.3 601 487.7 601 450.2 601C412.7 601 375.3 601 337.8 601C300.3 601 262.7 601 225.2 601C187.7 601 150.3 601 112.8 601C75.3 601 37.7 601 18.8 601L0 601Z" fill="#4a6049"></path></svg>